<svg xmlns="http://www.w3.org/2000/svg" viewBox="0 0 14 14" fill="none">
  <path d="M6.42216 1.64036C6.44713 1.50664 6.51809 1.38586 6.62274 1.29895C6.72739 1.21204 6.85914 1.16446 6.99518 1.16446C7.13121 1.16446 7.26296 1.21204 7.36761 1.29895C7.47226 1.38586 7.54322 1.50664 7.56819 1.64036L8.18085 4.88028C8.22437 5.11062 8.33631 5.3225 8.50206 5.48826C8.66782 5.65401 8.8797 5.76595 9.11004 5.80947L12.35 6.42213C12.4837 6.4471 12.6045 6.51806 12.6914 6.62271C12.7783 6.72736 12.8259 6.85911 12.8259 6.99514C12.8259 7.13118 12.7783 7.26293 12.6914 7.36758C12.6045 7.47223 12.4837 7.54319 12.35 7.56816L9.11004 8.18082C8.8797 8.22434 8.66782 8.33628 8.50206 8.50203C8.33631 8.66779 8.22437 8.87967 8.18085 9.11001L7.56819 12.3499C7.54322 12.4837 7.47226 12.6044 7.36761 12.6913C7.26296 12.7783 7.13121 12.8258 6.99518 12.8258C6.85914 12.8258 6.72739 12.7783 6.62274 12.6913C6.51809 12.6044 6.44713 12.4837 6.42216 12.3499L5.8095 9.11001C5.76598 8.87967 5.65404 8.66779 5.48829 8.50203C5.32253 8.33628 5.11065 8.22434 4.88031 8.18082L1.64039 7.56816C1.50667 7.54319 1.38589 7.47223 1.29898 7.36758C1.21207 7.26293 1.16449 7.13118 1.16449 6.99514C1.16449 6.85911 1.21207 6.72736 1.29898 6.62271C1.38589 6.51806 1.50667 6.4471 1.64039 6.42213L4.88031 5.80947C5.11065 5.76595 5.32253 5.65401 5.48829 5.48826C5.65404 5.3225 5.76598 5.11062 5.8095 4.88028L6.42216 1.64036Z" stroke="currentColor" stroke-width="1.16586" stroke-linecap="round" stroke-linejoin="round"/>
  <path d="M11.6586 1.16586V3.49758" stroke="currentColor" stroke-width="1.16586" stroke-linecap="round" stroke-linejoin="round"/>
  <path d="M12.8245 2.33173H10.4927" stroke="currentColor" stroke-width="1.16586" stroke-linecap="round" stroke-linejoin="round"/>
  <path d="M2.33169 12.8244C2.97558 12.8244 3.49755 12.3025 3.49755 11.6586C3.49755 11.0147 2.97558 10.4927 2.33169 10.4927C1.6878 10.4927 1.16583 11.0147 1.16583 11.6586C1.16583 12.3025 1.6878 12.8244 2.33169 12.8244Z" stroke="currentColor" stroke-width="1.16586" stroke-linecap="round" stroke-linejoin="round"/>
</svg>
