<svg width="24" height="24" viewBox="0 0 24 24" fill="none" xmlns="http://www.w3.org/2000/svg">
<path d="M2 9.49714C2.00002 8.38463 2.33751 7.2983 2.96788 6.38162C3.59826 5.46493 4.49187 4.76103 5.53069 4.36288C6.56951 3.96472 7.70467 3.89104 8.78625 4.15158C9.86782 4.41211 10.8449 4.99459 11.5885 5.8221C11.6409 5.8781 11.7042 5.92274 11.7745 5.95326C11.8449 5.98378 11.9207 5.99953 11.9974 5.99953C12.0741 5.99953 12.1499 5.98378 12.2203 5.95326C12.2906 5.92274 12.3539 5.8781 12.4063 5.8221C13.1475 4.98921 14.1249 4.40183 15.2082 4.13814C16.2915 3.87444 17.4295 3.94693 18.4706 4.34596C19.5117 4.745 20.4066 5.45165 21.0362 6.37186C21.6657 7.29207 22.0001 8.38219 21.9948 9.49714C21.9948 11.7865 20.4952 13.4961 18.9956 14.9957L13.505 20.3073C13.3187 20.5213 13.089 20.6931 12.8312 20.8115C12.5734 20.9299 12.2934 20.992 12.0097 20.9938C11.726 20.9956 11.4452 20.937 11.1859 20.8219C10.9266 20.7068 10.6948 20.5379 10.5058 20.3263L4.99922 14.9957C3.49961 13.4961 2 11.7965 2 9.49714Z" stroke="white" stroke-width="1.99948" stroke-linecap="round" stroke-linejoin="round"/>
</svg>
