<svg width="20" height="20" viewBox="0 0 20 20" fill="none" xmlns="http://www.w3.org/2000/svg">
<g clip-path="url(#clip0_0_3174)">
<path d="M16.6682 8.33311C16.6682 12.4936 12.0527 16.8266 10.5028 18.1648C10.3585 18.2734 10.1827 18.3321 10.0021 18.3321C9.8214 18.3321 9.64565 18.2734 9.50126 18.1648C7.95139 16.8266 3.33594 12.4936 3.33594 8.33311C3.33594 6.56514 4.03826 4.86959 5.2884 3.61945C6.53854 2.36931 8.23409 1.66699 10.0021 1.66699C11.77 1.66699 13.4656 2.36931 14.7157 3.61945C15.9659 4.86959 16.6682 6.56514 16.6682 8.33311Z" stroke="white" stroke-width="2.08316" stroke-linecap="round" stroke-linejoin="round"/>
<path d="M9.99979 10.8326C11.3804 10.8326 12.4996 9.7134 12.4996 8.3328C12.4996 6.9522 11.3804 5.83301 9.99979 5.83301C8.6192 5.83301 7.5 6.9522 7.5 8.3328C7.5 9.7134 8.6192 10.8326 9.99979 10.8326Z" stroke="white" stroke-width="2.08316" stroke-linecap="round" stroke-linejoin="round"/>
</g>
<defs>
<clipPath id="clip0_0_3174">
<rect width="19.9984" height="19.9984" fill="white"/>
</clipPath>
</defs>
</svg>
