<svg width="24" height="24" viewBox="0 0 24 24" fill="none" xmlns="http://www.w3.org/2000/svg">
<path d="M10.9977 4.70087C10.9975 4.56162 10.956 4.42555 10.8786 4.30983C10.8011 4.19411 10.6911 4.10393 10.5624 4.05066C10.4338 3.9974 10.2922 3.98345 10.1556 4.01056C10.019 4.03767 9.89354 4.10463 9.79497 4.203L6.41185 7.58512C6.28129 7.71646 6.12596 7.82059 5.95486 7.89146C5.78377 7.96234 5.60031 7.99855 5.41511 7.99801H2.99974C2.73459 7.99801 2.4803 8.10334 2.29282 8.29083C2.10533 8.47832 2 8.7326 2 8.99775V14.9962C2 15.2613 2.10533 15.5156 2.29282 15.7031C2.4803 15.8906 2.73459 15.9959 2.99974 15.9959H5.41511C5.60031 15.9954 5.78377 16.0316 5.95486 16.1025C6.12596 16.1734 6.28129 16.2775 6.41185 16.4088L9.79397 19.7919C9.89255 19.8907 10.0182 19.958 10.1551 19.9853C10.2919 20.0126 10.4338 19.9986 10.5627 19.9452C10.6916 19.8917 10.8018 19.8012 10.8792 19.6852C10.9566 19.5691 10.9979 19.4326 10.9977 19.2931V4.70087Z" stroke="white" stroke-width="1.99948" stroke-linecap="round" stroke-linejoin="round"/>
<path d="M21.9906 8.99805L15.9922 14.9965" stroke="white" stroke-width="1.99948" stroke-linecap="round" stroke-linejoin="round"/>
<path d="M15.9922 8.99805L21.9906 14.9965" stroke="white" stroke-width="1.99948" stroke-linecap="round" stroke-linejoin="round"/>
</svg>
