<svg width="24" height="24" viewBox="0 0 24 24" fill="none" xmlns="http://www.w3.org/2000/svg">
<path d="M17.9992 7.99746C19.6556 7.99746 20.9984 6.65467 20.9984 4.99824C20.9984 3.34182 19.6556 1.99902 17.9992 1.99902C16.3428 1.99902 15 3.34182 15 4.99824C15 6.65467 16.3428 7.99746 17.9992 7.99746Z" stroke="white" stroke-width="1.99948" stroke-linecap="round" stroke-linejoin="round"/>
<path d="M5.99922 14.9965C7.65564 14.9965 8.99844 13.6537 8.99844 11.9973C8.99844 10.3408 7.65564 8.99805 5.99922 8.99805C4.3428 8.99805 3 10.3408 3 11.9973C3 13.6537 4.3428 14.9965 5.99922 14.9965Z" stroke="white" stroke-width="1.99948" stroke-linecap="round" stroke-linejoin="round"/>
<path d="M17.9992 21.9945C19.6556 21.9945 20.9984 20.6517 20.9984 18.9953C20.9984 17.3389 19.6556 15.9961 17.9992 15.9961C16.3428 15.9961 15 17.3389 15 18.9953C15 20.6517 16.3428 21.9945 17.9992 21.9945Z" stroke="white" stroke-width="1.99948" stroke-linecap="round" stroke-linejoin="round"/>
<path d="M8.58594 13.5068L15.4142 17.4858" stroke="white" stroke-width="1.99948" stroke-linecap="round" stroke-linejoin="round"/>
<path d="M15.4042 6.50879L8.58594 10.4878" stroke="white" stroke-width="1.99948" stroke-linecap="round" stroke-linejoin="round"/>
</svg>
