<svg width="20" height="18" viewBox="0 0 20 18" fill="none" xmlns="http://www.w3.org/2000/svg">
<path d="M4.99996 7.07142C4.99996 6.36134 4.36037 5.78571 3.57139 5.78571C2.78242 5.78571 2.14282 6.36134 2.14282 7.07142V10.9286C2.14282 11.6386 2.78242 12.2143 3.57139 12.2143C4.36037 12.2143 4.99996 11.6386 4.99996 10.9286V7.07142Z" fill="white"/>
<path d="M9.99996 3.85713C9.99996 3.14704 9.36037 2.57141 8.57139 2.57141C7.78242 2.57141 7.14282 3.14704 7.14282 3.85713V14.1428C7.14282 14.8529 7.78242 15.4286 8.57139 15.4286C9.36037 15.4286 9.99996 14.8529 9.99996 14.1428V3.85713Z" fill="white"/>
<path d="M15 5.78571C15 5.07563 14.3604 4.5 13.5714 4.5C12.7824 4.5 12.1428 5.07563 12.1428 5.78571V12.2143C12.1428 12.9244 12.7824 13.5 13.5714 13.5C14.3604 13.5 15 12.9244 15 12.2143V5.78571Z" fill="white"/>
<path d="M20 7.07142C20 6.36134 19.3604 5.78571 18.5714 5.78571C17.7824 5.78571 17.1428 6.36134 17.1428 7.07142V10.9286C17.1428 11.6386 17.7824 12.2143 18.5714 12.2143C19.3604 12.2143 20 11.6386 20 10.9286V7.07142Z" fill="white"/>
</svg>
