<svg width="14" height="14" viewBox="0 0 14 14" fill="none" xmlns="http://www.w3.org/2000/svg">
<g clip-path="url(#clip0_0_1863)">
<path d="M3.23748 0.874992H1.57499C1.1884 0.874992 0.875 1.18839 0.875 1.57499V12.4249C0.875 12.8115 1.1884 13.1249 1.57499 13.1249H3.23748C3.62408 13.1249 3.93748 12.8115 3.93748 12.4249V1.57499C3.93748 1.18839 3.62408 0.874992 3.23748 0.874992Z" stroke="#CBFF00" stroke-width="1.31249"/>
<path d="M7.61242 0.874992H5.94993C5.56334 0.874992 5.24994 1.18839 5.24994 1.57499V12.4249C5.24994 12.8115 5.56334 13.1249 5.94993 13.1249H7.61242C7.99902 13.1249 8.31242 12.8115 8.31242 12.4249V1.57499C8.31242 1.18839 7.99902 0.874992 7.61242 0.874992Z" stroke="#CBFF00" stroke-width="1.31249"/>
<path d="M11.9874 0.874992H10.3249C9.93834 0.874992 9.62494 1.18839 9.62494 1.57499V12.4249C9.62494 12.8115 9.93834 13.1249 10.3249 13.1249H11.9874C12.374 13.1249 12.6874 12.8115 12.6874 12.4249V1.57499C12.6874 1.18839 12.374 0.874992 11.9874 0.874992Z" stroke="#CBFF00" stroke-width="1.31249"/>
</g>
<defs>
<clipPath id="clip0_0_1863">
<rect width="13.9999" height="13.9999" fill="white"/>
</clipPath>
</defs>
</svg>
