<svg width="24" height="18" viewBox="0 0 24 18" fill="none" xmlns="http://www.w3.org/2000/svg">
<path d="M15 3.75043V5.25043" stroke="#0F0F0F" stroke-width="1.16667" stroke-linecap="round" stroke-linejoin="round"/>
<path d="M15 8.25043V9.75043" stroke="#0F0F0F" stroke-width="1.16667" stroke-linecap="round" stroke-linejoin="round"/>
<path d="M15 12.7504V14.2504" stroke="#0F0F0F" stroke-width="1.16667" stroke-linecap="round" stroke-linejoin="round"/>
<path d="M5 3.75043H19C19.5304 3.75043 20.0391 3.90846 20.4142 4.18977C20.7893 4.47107 21 4.8526 21 5.25043V7.50043C20.4696 7.50043 19.9609 7.65846 19.5858 7.93977C19.2107 8.22107 19 8.6026 19 9.00043C19 9.39825 19.2107 9.77978 19.5858 10.0611C19.9609 10.3424 20.4696 10.5004 21 10.5004V12.7504C21 13.1483 20.7893 13.5298 20.4142 13.8111C20.0391 14.0924 19.5304 14.2504 19 14.2504H5C4.46957 14.2504 3.96086 14.0924 3.58579 13.8111C3.21071 13.5298 3 13.1483 3 12.7504V10.5004C3.53043 10.5004 4.03914 10.3424 4.41421 10.0611C4.78929 9.77978 5 9.39825 5 9.00043C5 8.6026 4.78929 8.22107 4.41421 7.93977C4.03914 7.65846 3.53043 7.50043 3 7.50043V5.25043C3 4.8526 3.21071 4.47107 3.58579 4.18977C3.96086 3.90846 4.46957 3.75043 5 3.75043Z" stroke="#0F0F0F" stroke-width="1.16667" stroke-linecap="round" stroke-linejoin="round"/>
</svg>
