<svg width="14" height="14" viewBox="0 0 14 14" fill="none" xmlns="http://www.w3.org/2000/svg">
<g clip-path="url(#clip0_0_1859)">
<path d="M5.24997 0.874992H1.74999C1.26675 0.874992 0.875 1.26674 0.875 1.74999V12.2499C0.875 12.7332 1.26675 13.1249 1.74999 13.1249H5.24997C5.73321 13.1249 6.12496 12.7332 6.12496 12.2499V1.74999C6.12496 1.26674 5.73321 0.874992 5.24997 0.874992Z" stroke="#5A5A5A" stroke-width="1.31249"/>
<path d="M12.2499 0.874992H8.74993C8.26669 0.874992 7.87494 1.26674 7.87494 1.74999V12.2499C7.87494 12.7332 8.26669 13.1249 8.74993 13.1249H12.2499C12.7332 13.1249 13.1249 12.7332 13.1249 12.2499V1.74999C13.1249 1.26674 12.7332 0.874992 12.2499 0.874992Z" stroke="#5A5A5A" stroke-width="1.31249"/>
</g>
<defs>
<clipPath id="clip0_0_1859">
<rect width="13.9999" height="13.9999" fill="white"/>
</clipPath>
</defs>
</svg>
